# xmcd
#
# Track frame offsets: 
#        150
#        17885
#        37977
#        66306
#        88081
#        111046
#        126762
#        141821
#        161201
#        191399
#
# Disc length: 2970 seconds
#
# Revision: 0
# Processed by: cddbd v1.5.2PL0 Copyright (c) Steve Scherf et al.
# Submitted via: ExactAudioCopy v1.3
#
DISCID=870b980a
DTITLE=Keith Stone with Red Gravy - Blues with A Taste Of New Orlea
DYEAR=2018
DGENRE=Louisiana Blues
TTITLE0=Ain't That the Blues
TTITLE1=Love Done Put Me Down
TTITLE2=You Ain't Got Nothing
TTITLE3=Red Gravy
TTITLE4=Crazy in Love with You
TTITLE5=Don't Count Me Out
TTITLE6=Blue Eyed Angel
TTITLE7=Time to Move On
TTITLE8=Hard to Have the Blues
TTITLE9=Something in the Water
EXTD=
EXTT0=
EXTT1=
EXTT2=
EXTT3=
EXTT4=
EXTT5=
EXTT6=
EXTT7=
EXTT8=
EXTT9=
PLAYORDER=
